<svg id="Layer_1" data-name="Layer 1" xmlns="http://www.w3.org/2000/svg" viewBox="0 0 412.56 54.29"><defs><style>.cls-1{fill:#fff;}</style></defs><title>jurix</title><path class="cls-1" d="M29.49,195.83a4.26,4.26,0,0,1,1.25-3.38,4.07,4.07,0,0,1,2.74-1.09,3.86,3.86,0,0,1,2.75,1.15,4.2,4.2,0,0,1,1.2,3.18Q37.42,200,33,200h-.07A8.81,8.81,0,0,0,41,204.44a6.82,6.82,0,0,0,5.58-3.16A13.49,13.49,0,0,0,48.93,193V157.93a5.7,5.7,0,0,0-.3-2.24q-.3-.62-1.92-1a24,24,0,0,0-5.32-.41H38.59v-2.41q2.94.23,13,.23,4.86,0,9.94-.23v2.41a15.82,15.82,0,0,0-4.94.45q-1,.45-1,2.71v34.18q0,2.78-.08,3.38a12.43,12.43,0,0,1-4.66,7.86,14.61,14.61,0,0,1-9.65,3.31,12.09,12.09,0,0,1-8.27-3A9.38,9.38,0,0,1,29.49,195.83Z" transform="translate(-29.49 -151.84)"/><path class="cls-1" d="M68.37,154.24v-2.41q2.71.23,11.39.23t11.32-.23v2.41H89.23q-4.17,0-5.13.69t-1,2.91v29.3a23.35,23.35,0,0,0,1.43,8.7A11.21,11.21,0,0,0,88.22,201a15.11,15.11,0,0,0,4,2.16,11.76,11.76,0,0,0,3.59.58,13.88,13.88,0,0,0,10.32-4.66q4.45-4.66,4.46-12.44V159.92a8.6,8.6,0,0,0-.16-1.84,5.88,5.88,0,0,0-.83-1.73,4.21,4.21,0,0,0-2.49-1.58,17.23,17.23,0,0,0-4.68-.53v-2.41q8.41.23,9.28.23t9.18-.23v2.41a18.49,18.49,0,0,0-4.68.49,3.91,3.91,0,0,0-2.47,1.58,6.6,6.6,0,0,0-.83,1.86,9.64,9.64,0,0,0-.17,2v24.65a42.91,42.91,0,0,1-.22,5.31,19.54,19.54,0,0,1-5.7,11.33,15.34,15.34,0,0,1-11.15,4.63A18.9,18.9,0,0,1,82,200.54a18.38,18.38,0,0,1-5.73-13.68v-29q0-2.22-1-2.91t-5.11-.69Z" transform="translate(-29.49 -151.84)"/><path class="cls-1" d="M126.27,204.44V202h1.84q4.17,0,5.13-.69t1-2.95V157.85q0-2.22-1-2.91t-5.11-.69h-1.84v-2.41h24.18A24.09,24.09,0,0,1,164.67,156q5.85,4.12,5.85,9.76a10.12,10.12,0,0,1-3.8,7.71,22.41,22.41,0,0,1-9.66,4.85q7.63,2.63,9.4,8.91l1,6.17q.3,2.22.51,3.35t.55,2.67a10.83,10.83,0,0,0,.7,2.27,12,12,0,0,0,.88,1.5,2.63,2.63,0,0,0,1.22,1,4.6,4.6,0,0,0,1.64.26,4.47,4.47,0,0,0,3.27-1.58q1.5-1.58,1.8-5.26.15-1.24.94-1.24,1,0,1,1.24a10.16,10.16,0,0,1-.3,2.35,12.86,12.86,0,0,1-1,2.73,6.19,6.19,0,0,1-2.31,2.46,6.69,6.69,0,0,1-3.65,1,14.17,14.17,0,0,1-9.7-3.23,8.29,8.29,0,0,1-2.24-3.2,11.68,11.68,0,0,1-.81-3.23q-.11-1.43-.11-4.59a30.75,30.75,0,0,0-.47-6.43,8.18,8.18,0,0,0-2.46-3.87,9.86,9.86,0,0,0-7.18-2.63h-8.84v19.44q0,2.22,1,2.93t5.13.71h1.84v2.41q-2.78-.23-11.24-.23T126.27,204.44Zm14.55-27.18h8.53a20.4,20.4,0,0,0,6.86-1,8.38,8.38,0,0,0,4.08-2.8,11,11,0,0,0,1.8-3.63,15.93,15.93,0,0,0,.49-4.12A16.74,16.74,0,0,0,162,161a6.94,6.94,0,0,0-1.92-3.23,15.69,15.69,0,0,0-2.63-2,9.31,9.31,0,0,0-3.35-1.07q-2-.3-3.42-.38t-3.61-.08a37.35,37.35,0,0,0-4.55.15,1.68,1.68,0,0,0-1.2.49,1.84,1.84,0,0,0-.41.88,11.16,11.16,0,0,0-.08,1.56Z" transform="translate(-29.49 -151.84)"/><path class="cls-1" d="M182.36,204.44V202h2q4.32,0,5.32-.69t1-2.95V157.85q0-2.22-1-2.91t-5.3-.69h-2v-2.41q2.71.23,11.81.23t11.69-.23v2.41h-2q-4.32,0-5.32.69t-1,2.91v40.54q0,2.22,1,2.93t5.32.71h2v2.41q-2.71-.23-11.77-.23T182.36,204.44Z" transform="translate(-29.49 -151.84)"/><path class="cls-1" d="M209.85,204.44V202a15.76,15.76,0,0,0,6.13-1.09,11,11,0,0,0,3.37-1.9,17.27,17.27,0,0,0,1.67-2.12l12.63-18.6-14.17-21.41a5.3,5.3,0,0,0-2.54-2.14,14.62,14.62,0,0,0-4.61-.53h-1.47v-2.41q4.25.23,10,.23,8.53,0,11.24-.23v2.41a8.28,8.28,0,0,0-3.65.81q-1.35.73-1.35,1.48a3.06,3.06,0,0,0,.53,1.16l9.93,14.84,8.8-13a3.65,3.65,0,0,0,.68-1.77,3.06,3.06,0,0,0-1.26-2.42,5.71,5.71,0,0,0-3.52-1.11v-2.41q3.08.23,9.89.23l2.28,0,3.29-.11q1.88-.07,3-.08v2.41q-7.78.08-11.17,5l-10.56,15.44,16.24,24.57a5.69,5.69,0,0,0,2.63,2.24,14.35,14.35,0,0,0,4.63.54h1.47v2.41q-4.85-.23-10-.23-8.53,0-11.24.23V202a8.27,8.27,0,0,0,3.65-.81q1.35-.73,1.35-1.52a5.23,5.23,0,0,0-.41-.83l-12.14-18.41-10.94,16.15a4.2,4.2,0,0,0-.75,1.84,3.18,3.18,0,0,0,1.22,2.35,5.65,5.65,0,0,0,3.63,1.22v2.41q-2.78-.23-9.89-.23Z" transform="translate(-29.49 -151.84)"/><path class="cls-1" d="M295.19,204.44a7.7,7.7,0,0,1,.13-1.8,3.15,3.15,0,0,1,.72-1.05l14.66-16.47q8.1-9.11,8.1-17.06a14.5,14.5,0,0,0-2.69-8.81,8.91,8.91,0,0,0-7.63-3.68,10.35,10.35,0,0,0-6.19,2,11.64,11.64,0,0,0-4.14,5.7,4,4,0,0,1,1-.08,3.68,3.68,0,0,1,2.93,1.21,4.21,4.21,0,0,1,1.05,2.85,3.65,3.65,0,0,1-1.31,3.09,4.27,4.27,0,0,1-2.6,1,7.36,7.36,0,0,1-1.2-.11,3.79,3.79,0,0,1-1.75-1.2,4.1,4.1,0,0,1-1.07-3,13.67,13.67,0,0,1,4-9.63,13.47,13.47,0,0,1,10.22-4.27,16.56,16.56,0,0,1,11.59,4.18,14.64,14.64,0,0,1,3.91,15.1,20.79,20.79,0,0,1-1.6,3.71,23.91,23.91,0,0,1-3.38,4.22q-2.46,2.6-4.44,4.44t-6.42,5.76L301,198.5H314.8q6.72,0,7.25-.6.75-1.09,1.68-6.84h1.92l-2.14,13.38Z" transform="translate(-29.49 -151.84)"/><path class="cls-1" d="M332.87,179.81q0-11.32,2.86-17.48,4-9.17,13.38-9.17a16.13,16.13,0,0,1,4.08.54,13.75,13.75,0,0,1,4.74,2.61,14.94,14.94,0,0,1,4.27,5.45q3.08,6.54,3.08,18,0,11.24-2.86,17.37-4.17,8.95-13.38,8.95a15.43,15.43,0,0,1-7-1.77,13.32,13.32,0,0,1-5.73-6Q332.87,192,332.87,179.81Zm6.39-.94q0,11.62.83,16.24.94,5,3.52,7.16a8,8,0,0,0,11.09-.15q2.58-2.31,3.37-7.31a101.25,101.25,0,0,0,.83-15.94,100.59,100.59,0,0,0-.75-15q-1-5-3.7-7a9,9,0,0,0-5.4-2,7.72,7.72,0,0,0-2.09.3,12.58,12.58,0,0,0-2.61,1.17,7.43,7.43,0,0,0-2.73,3,17.27,17.27,0,0,0-1.75,5.38A113.76,113.76,0,0,0,339.26,178.87Z" transform="translate(-29.49 -151.84)"/><path class="cls-1" d="M374.83,160.49v-2.41q9.33,0,14.14-4.93,1.23,0,1.44.3a3.87,3.87,0,0,1,.21,1.69v43.17q0,2.29,1.17,3t6.29.71h2.54v2.41q-2.71-.23-12.48-.23t-12.44.23V202h2.44q4.85,0,6-.69t1.17-3V158.46A23.93,23.93,0,0,1,374.83,160.49Z" transform="translate(-29.49 -151.84)"/><path class="cls-1" d="M410.09,192.79q0-8.6,11.09-14.16a45.8,45.8,0,0,1-5.64-4.17,12.31,12.31,0,0,1-3.38-8.45,11.9,11.9,0,0,1,4.08-9.11,14.09,14.09,0,0,1,9.87-3.74,15.52,15.52,0,0,1,9.7,3.19,10,10,0,0,1,4.17,8.27q0,7.14-9.32,11.95,6.17,3.83,7.63,5.45a13.76,13.76,0,0,1,3.76,9.47,13.44,13.44,0,0,1-4.74,10.42A16.35,16.35,0,0,1,426,206.13a17.62,17.62,0,0,1-11.17-3.73A11.66,11.66,0,0,1,410.09,192.79Zm3.83,0a10.22,10.22,0,0,0,3.59,8,12.49,12.49,0,0,0,8.59,3.19,13.54,13.54,0,0,0,8.48-2.78,8.41,8.41,0,0,0,3.63-6.91,8.17,8.17,0,0,0-.54-3,7.52,7.52,0,0,0-1.62-2.5,17.41,17.41,0,0,0-1.73-1.62q-.66-.51-1.9-1.37l-9.47-6Q413.93,184.79,413.93,192.79ZM415.54,163q0,3.68,3.87,6.24L429,175.4q7.63-4.47,7.63-10.78a8.68,8.68,0,0,0-3.12-6.82,11,11,0,0,0-7.44-2.72,12.32,12.32,0,0,0-7.37,2.24A6.75,6.75,0,0,0,415.54,163Z" transform="translate(-29.49 -151.84)"/></svg>