<?xml version="1.0" encoding="UTF-8"?>
<svg width="357px" height="141px" viewBox="0 0 357 141" version="1.1" xmlns="http://www.w3.org/2000/svg" xmlns:xlink="http://www.w3.org/1999/xlink">
    <!-- Generator: Sketch 47.1 (45422) - http://www.bohemiancoding.com/sketch -->
    <title>Untitled 4</title>
    <desc>Created with Sketch.</desc>
    <defs></defs>
    <g id="Page-1" stroke="none" stroke-width="1" fill="none" fill-rule="evenodd">
        <g id="siks" transform="translate(0.000000, -701.000000)">
            <polygon id="Fill-1" fill="#6C9DC7" points="135.779 841.5978 135.779 745.6633 89.8423 758.6572 89.8423 841.5978"></polygon>
            <polygon id="Fill-3" fill="#6C9DC7" points="163.8182 840.9319 209.75489 840.9319 209.75489 743.66402 163.8182 743.66402"></polygon>
            <polygon id="Fill-4" fill="#6C9DC7" points="280.4306 841.6186 252.4126 787.9555 277.7648 743.664 225.0603 743.664 210.0982 788.2893 229.0584 841.6186"></polygon>
            <path d="M340.33,841.5978 C340.33,841.5978 356.3646,826.9376 356.3646,814.9431 C356.3646,796.9515 334.3748,782.958 334.3748,766.9654 C334.3748,752.9719 346.9939,744.3199 346.9939,744.3199 L297.4119,744.3199 C297.4119,744.3199 286.397,754.3113 286.397,767.6321 C286.397,786.9561 309.7192,804.2821 309.0525,816.2765 C308.3868,828.266 290.0613,841.6078 290.0613,841.6078 L340.33,841.5978 Z" id="Fill-5" fill="#6C9DC7"></path>
            <path d="M51.464,841.5978 C51.464,841.5978 67.3317,826.6047 67.3317,814.6103 C67.3317,796.6186 45.5088,782.958 45.5088,766.9654 C45.5088,752.9719 58.3358,744.143 58.3358,744.143 L6.9427,744.06 C6.9427,744.06 -0.6368,747.9742 0.1958,766.9654 C1.0424,786.2714 18.5213,803.9482 17.8546,815.9427 C17.1879,827.9331 1.1953,841.6078 1.1953,841.6078 L51.464,841.5978 Z" id="Fill-6" fill="#6C9DC7"></path>
            <path d="M74.1448,745.4091 C74.5786,740.3115 77.4533,734.892 79.8262,731.5655 C106.6137,693.9999 214.1309,702.512 214.1309,702.512 L211.765,706.6601 C211.765,706.6601 118.4742,701.9962 97.384,732.0983 C97.384,732.0983 145.9115,707.9425 153.3581,731.9823 C156.7905,743.0602 137.8413,758.627 112.8109,763.5507 C91.2759,767.7867 79.5763,761.5516 76.3808,752.4848 C76.3808,752.4848 61.1678,756.9707 27.5164,777.6271 L29.4115,772.5465 C58.1482,753.0555 74.1448,745.4091 74.1448,745.4091" id="Fill-7" fill="#0070AC"></path>
            <path d="M74.1448,745.4091 C74.5785988,740.311465 77.4532652,734.891979 79.8261643,731.565522 C106.613737,693.999949 214.130858,702.512001 214.130858,702.512001 L211.764956,706.660076 C211.764956,706.660076 118.474235,701.99624 97.384019,732.098275 C97.384019,732.098275 145.911506,707.942481 153.358052,731.982329 C156.790459,743.06019 137.84125,758.626968 112.810862,763.550684 C91.2758526,767.786719 79.5762803,761.551611 76.3807627,752.484817 C76.3807627,752.484817 61.1678202,756.970736 27.5164316,777.627154 L29.4115524,772.546511 C58.1482211,753.055553 74.1448,745.4091 74.1448,745.4091 Z" id="Stroke-8" stroke="#FFFFFE"></path>
        </g>
    </g>
</svg>